<svg xmlns="http://www.w3.org/2000/svg" fill="none" viewBox="0 0 480 139"><defs/><g clip-path="url(#clip0)"><path fill="#000" d="M448.07-1l-9.62 17.24-8.36 14.96L369.93 139H-1V-1h449.07z"/><path fill="#fff" d="M291.613 19.53h3.363L311.791 60h-4.218l-5.244-12.654h-18.183L278.959 60h-4.275l16.929-40.47zm9.804 24.681l-8.151-20.007-8.265 20.007h16.416zm30.198-10.488c-2.622.076-4.902.798-6.84 2.166-1.938 1.368-3.306 3.249-4.104 5.643V60h-3.876V30.303h3.648v7.125c1.102-2.28 2.584-4.066 4.446-5.358 1.862-1.292 3.857-1.938 5.985-1.938.304 0 .551.019.741.057v3.534zm1.608 11.343c0-2.09.361-4.066 1.083-5.928s1.729-3.477 3.021-4.845a14.357 14.357 0 014.731-3.306c1.824-.798 3.838-1.197 6.042-1.197 2.812 0 5.263.646 7.353 1.938 2.09 1.254 3.667 2.964 4.731 5.13l-3.762 1.197a8.789 8.789 0 00-3.534-3.534c-1.482-.874-3.135-1.311-4.959-1.311-1.52 0-2.945.304-4.275.912a11.053 11.053 0 00-3.42 2.508c-.95 1.026-1.71 2.261-2.28 3.705-.532 1.444-.798 3.021-.798 4.731 0 1.672.285 3.249.855 4.731.57 1.482 1.349 2.774 2.337 3.876a11.885 11.885 0 003.42 2.565c1.33.608 2.736.912 4.218.912.95 0 1.881-.133 2.793-.399.95-.266 1.824-.627 2.622-1.083a10.018 10.018 0 002.052-1.653c.57-.608.969-1.254 1.197-1.938l3.819 1.14a10.085 10.085 0 01-1.824 2.964 13.387 13.387 0 01-2.85 2.337c-1.064.646-2.261 1.14-3.591 1.482-1.292.38-2.641.57-4.047.57-2.166 0-4.161-.399-5.985-1.197a15.098 15.098 0 01-4.731-3.363 16.402 16.402 0 01-3.135-4.959c-.722-1.862-1.083-3.857-1.083-5.985zM22.498 109.015v-38.34h13.014c3.06 0 5.724.504 7.992 1.512 2.304 1.008 4.212 2.376 5.724 4.104 1.548 1.728 2.7 3.762 3.456 6.102.792 2.304 1.188 4.77 1.188 7.398 0 2.916-.432 5.562-1.296 7.938-.864 2.34-2.106 4.356-3.726 6.048-1.584 1.656-3.51 2.952-5.778 3.888-2.232.9-4.752 1.35-7.56 1.35H22.498zm27.594-19.224c0-2.304-.324-4.41-.972-6.318-.648-1.944-1.602-3.618-2.862-5.022-1.224-1.404-2.736-2.484-4.536-3.24-1.8-.792-3.87-1.188-6.21-1.188h-9.234v31.644h9.234c2.376 0 4.464-.396 6.264-1.188 1.836-.828 3.366-1.944 4.59-3.348 1.224-1.44 2.142-3.114 2.754-5.022.648-1.944.972-4.05.972-6.318zm22.401 19.764c-2.051 0-3.941-.378-5.67-1.134a14.492 14.492 0 01-4.427-3.186 15.539 15.539 0 01-2.97-4.698c-.684-1.764-1.026-3.654-1.026-5.67 0-1.98.342-3.834 1.026-5.562.72-1.764 1.691-3.294 2.916-4.59a13.602 13.602 0 014.481-3.132c1.729-.792 3.6-1.188 5.617-1.188 2.052 0 3.924.396 5.616 1.188 1.728.756 3.204 1.8 4.428 3.132a14.729 14.729 0 012.862 4.59c.684 1.728 1.026 3.564 1.026 5.508v.864c0 .288-.018.486-.054.594H62.234c.108 1.512.45 2.916 1.026 4.212a12.074 12.074 0 002.322 3.294 10.786 10.786 0 003.186 2.214 10.11 10.11 0 003.888.756c.9 0 1.8-.126 2.7-.378.9-.252 1.728-.594 2.484-1.026a9.68 9.68 0 002.051-1.566 7.183 7.183 0 001.405-2.106l3.185.864a9.702 9.702 0 01-1.835 2.862 14.014 14.014 0 01-2.755 2.214 13.385 13.385 0 01-3.456 1.404c-1.26.36-2.573.54-3.942.54zm10.369-16.092c-.108-1.512-.468-2.88-1.08-4.104-.576-1.26-1.332-2.34-2.269-3.24a9.645 9.645 0 00-3.186-2.106c-1.187-.504-2.465-.756-3.834-.756a10.11 10.11 0 00-3.887.756 10.271 10.271 0 00-3.24 2.106c-.9.9-1.639 1.98-2.215 3.24-.54 1.26-.864 2.628-.972 4.104h20.683zm16.86 15.552L88.276 80.881h3.78l9.666 24.732 9.72-24.732h3.564l-11.448 28.134h-3.834zm31.57.54c-2.052 0-3.942-.378-5.67-1.134a14.492 14.492 0 01-4.428-3.186 15.539 15.539 0 01-2.97-4.698c-.684-1.764-1.026-3.654-1.026-5.67 0-1.98.342-3.834 1.026-5.562.72-1.764 1.692-3.294 2.916-4.59a13.602 13.602 0 014.482-3.132c1.728-.792 3.6-1.188 5.616-1.188 2.052 0 3.924.396 5.616 1.188 1.728.756 3.204 1.8 4.428 3.132a14.73 14.73 0 012.862 4.59c.684 1.728 1.026 3.564 1.026 5.508v.864c0 .288-.018.486-.054.594h-24.084c.108 1.512.45 2.916 1.026 4.212a12.074 12.074 0 002.322 3.294 10.786 10.786 0 003.186 2.214 10.11 10.11 0 003.888.756c.9 0 1.8-.126 2.7-.378.9-.252 1.728-.594 2.484-1.026a9.68 9.68 0 002.052-1.566 7.182 7.182 0 001.404-2.106l3.186.864a9.704 9.704 0 01-1.836 2.862 14.01 14.01 0 01-2.754 2.214 13.385 13.385 0 01-3.456 1.404c-1.26.36-2.574.54-3.942.54zm10.368-16.092c-.108-1.512-.468-2.88-1.08-4.104-.576-1.26-1.332-2.34-2.268-3.24a9.646 9.646 0 00-3.186-2.106c-1.188-.504-2.466-.756-3.834-.756a10.11 10.11 0 00-3.888.756 10.271 10.271 0 00-3.24 2.106c-.9.9-1.638 1.98-2.214 3.24-.54 1.26-.864 2.628-.972 4.104h20.682zm9.338-23.868h3.672v33.048c0 1.044.288 1.872.864 2.484.576.576 1.386.864 2.43.864.396 0 .864-.054 1.404-.162a9.272 9.272 0 001.512-.432l.648 2.97c-.684.288-1.53.522-2.538.702-.972.18-1.818.27-2.538.27-1.692 0-3.024-.468-3.996-1.404-.972-.972-1.458-2.322-1.458-4.05v-34.29zm26.539 39.96c-2.052 0-3.924-.378-5.616-1.134a14.492 14.492 0 01-4.428-3.186c-1.224-1.332-2.178-2.88-2.862-4.644a15.25 15.25 0 01-1.026-5.562c0-1.98.342-3.852 1.026-5.616.72-1.764 1.692-3.312 2.916-4.644a14.492 14.492 0 014.428-3.186c1.692-.792 3.546-1.188 5.562-1.188 2.016 0 3.87.396 5.562 1.188 1.728.792 3.204 1.854 4.428 3.186a14.103 14.103 0 012.916 4.644c.72 1.764 1.08 3.636 1.08 5.616a15.25 15.25 0 01-1.026 5.562 14.103 14.103 0 01-2.916 4.644c-1.224 1.332-2.7 2.394-4.428 3.186-1.692.756-3.564 1.134-5.616 1.134zm-10.206-14.472c0 1.584.27 3.06.81 4.428.54 1.332 1.26 2.52 2.16 3.564a10.471 10.471 0 003.24 2.376 9.5 9.5 0 003.996.864 9.142 9.142 0 003.942-.864 11.025 11.025 0 003.294-2.43 11.925 11.925 0 002.214-3.618c.54-1.368.81-2.844.81-4.428 0-1.548-.27-3.006-.81-4.374-.54-1.404-1.278-2.61-2.214-3.618a9.923 9.923 0 00-3.294-2.43 8.693 8.693 0 00-3.942-.918 8.693 8.693 0 00-3.942.918 10.094 10.094 0 00-3.24 2.43c-.936 1.044-1.674 2.268-2.214 3.672-.54 1.368-.81 2.844-.81 4.428zm44.697 14.472c-2.376 0-4.482-.594-6.318-1.782a14.779 14.779 0 01-4.374-4.59v17.334h-3.672V80.881h3.294v5.454a13.379 13.379 0 014.482-4.266 11.328 11.328 0 015.994-1.674c1.944 0 3.726.414 5.346 1.242a13.21 13.21 0 014.212 3.24c1.188 1.332 2.106 2.88 2.754 4.644a14.962 14.962 0 011.026 5.454c0 1.98-.306 3.852-.918 5.616-.612 1.764-1.494 3.312-2.646 4.644a12.534 12.534 0 01-4.05 3.186c-1.548.756-3.258 1.134-5.13 1.134zm-1.026-3.24c1.512 0 2.88-.324 4.104-.972a10.042 10.042 0 003.186-2.538c.9-1.08 1.584-2.286 2.052-3.618.468-1.368.702-2.772.702-4.212 0-1.512-.27-2.952-.81-4.32a11.925 11.925 0 00-2.214-3.618 10.423 10.423 0 00-3.348-2.484c-1.26-.612-2.628-.918-4.104-.918-.936 0-1.926.198-2.97.594-1.008.36-1.962.864-2.862 1.512-.864.612-1.62 1.35-2.268 2.214-.612.828-.99 1.71-1.134 2.646v8.64a13.57 13.57 0 001.62 2.808c.684.864 1.44 1.62 2.268 2.268a11.896 11.896 0 002.754 1.458c.972.36 1.98.54 3.024.54zm61.84 2.7h-3.672V93.301c0-3.276-.522-5.688-1.566-7.236s-2.592-2.322-4.644-2.322a8.08 8.08 0 00-3.078.594 9.915 9.915 0 00-2.646 1.674 11.624 11.624 0 00-2.106 2.592 11.932 11.932 0 00-1.404 3.24v17.172h-3.672V93.301c0-3.348-.504-5.778-1.512-7.29-1.008-1.512-2.556-2.268-4.644-2.268-2.124 0-4.014.738-5.67 2.214-1.656 1.476-2.844 3.42-3.564 5.832v17.226h-3.672V80.881h3.348v6.372c1.152-2.16 2.664-3.834 4.536-5.022 1.872-1.224 3.942-1.836 6.21-1.836 2.376 0 4.266.666 5.67 1.998 1.44 1.332 2.322 3.078 2.646 5.238 2.628-4.824 6.246-7.236 10.854-7.236 1.584 0 2.916.288 3.996.864a6.513 6.513 0 012.646 2.484c.684 1.044 1.17 2.322 1.458 3.834.324 1.476.486 3.132.486 4.968v16.47zm19.923.54c-2.052 0-3.942-.378-5.67-1.134a14.492 14.492 0 01-4.428-3.186 15.539 15.539 0 01-2.97-4.698c-.684-1.764-1.026-3.654-1.026-5.67 0-1.98.342-3.834 1.026-5.562.72-1.764 1.692-3.294 2.916-4.59a13.602 13.602 0 014.482-3.132c1.728-.792 3.6-1.188 5.616-1.188 2.052 0 3.924.396 5.616 1.188 1.728.756 3.204 1.8 4.428 3.132a14.73 14.73 0 012.862 4.59c.684 1.728 1.026 3.564 1.026 5.508v.864c0 .288-.018.486-.054.594h-24.084c.108 1.512.45 2.916 1.026 4.212a12.074 12.074 0 002.322 3.294 10.786 10.786 0 003.186 2.214 10.11 10.11 0 003.888.756c.9 0 1.8-.126 2.7-.378.9-.252 1.728-.594 2.484-1.026a9.68 9.68 0 002.052-1.566 7.182 7.182 0 001.404-2.106l3.186.864a9.704 9.704 0 01-1.836 2.862 14.01 14.01 0 01-2.754 2.214 13.385 13.385 0 01-3.456 1.404c-1.26.36-2.574.54-3.942.54zm10.368-16.092c-.108-1.512-.468-2.88-1.08-4.104-.576-1.26-1.332-2.34-2.268-3.24a9.646 9.646 0 00-3.186-2.106c-1.188-.504-2.466-.756-3.834-.756a10.11 10.11 0 00-3.888.756 10.271 10.271 0 00-3.24 2.106c-.9.9-1.638 1.98-2.214 3.24-.54 1.26-.864 2.628-.972 4.104h20.682zm32.827 15.552h-3.672V93.301c0-3.348-.504-5.778-1.512-7.29-.972-1.512-2.484-2.268-4.536-2.268-1.08 0-2.16.198-3.24.594a11.34 11.34 0 00-3.024 1.674c-.9.72-1.71 1.584-2.43 2.592a9.744 9.744 0 00-1.566 3.186v17.226h-3.672V80.881h3.348v6.372c1.152-2.052 2.79-3.708 4.914-4.968 2.16-1.26 4.5-1.89 7.02-1.89 1.548 0 2.862.288 3.942.864a6.726 6.726 0 012.592 2.43c.648 1.044 1.116 2.322 1.404 3.834.288 1.512.432 3.186.432 5.022v16.47zm21.067-1.35c-.216.108-.54.252-.972.432-.396.18-.864.36-1.404.54-.54.18-1.152.342-1.836.486-.684.144-1.404.216-2.16.216a7.85 7.85 0 01-2.268-.324 5.536 5.536 0 01-1.89-.972 5.198 5.198 0 01-1.296-1.728c-.324-.684-.486-1.476-.486-2.376V83.797h-3.888v-2.916h3.888v-9.504h3.672v9.504h6.48v2.916h-6.48v19.116c.072 1.044.432 1.818 1.08 2.322a4.016 4.016 0 002.322.702c1.044 0 1.962-.162 2.754-.486.792-.36 1.296-.612 1.512-.756l.972 2.97z"/><path fill="#000" d="M382.44 116.43l47.65-85.23 8.36-14.96-56.01 100.19zM369.83 139l-.01.01L362 153"/><path fill="#0B72B9" d="M438.76 15.76l-56.42 100.91c-12.52-10.83-20.45-26.82-20.45-44.67 0-32.58 26.42-59 59-59 6.23 0 12.24.97 17.87 2.76z"/><path fill="#000" d="M479.89 72c0 32.58-26.42 59-59 59-14.73 0-28.21-5.4-38.55-14.33l56.42-100.91c23.85 7.57 41.13 29.89 41.13 56.24z"/><path fill="#000" d="M435.203 25.813l-.09 80.38-7.67-.01.06-52.25-29.4 52.21-7.94-.01 45.04-80.32zM457-17l-8.93 16-9.62 17.24-8.36 14.96L369.93 139l-.01.01L361 155"/></g><defs><clipPath id="clip0"><path fill="#fff" d="M0 0h480v139H0z"/></clipPath></defs></svg>